<svg width="107" height="36" viewBox="0 0 107 36" fill="none" xmlns="http://www.w3.org/2000/svg">
<path d="M25.4336 12.7109L24.2812 13.4727C23.5781 12.431 22.6602 11.6107 21.5273 11.0117C20.4076 10.3997 19.1901 10.0938 17.875 10.0938C15.7396 10.0938 13.9167 10.849 12.4062 12.3594C10.8958 13.8698 10.1406 15.6927 10.1406 17.8281C10.1406 19.9635 10.8958 21.7865 12.4062 23.2969C13.9167 24.8073 15.7396 25.5625 17.875 25.5625C19.1901 25.5625 20.4076 25.2565 21.5273 24.6445C22.6602 24.0326 23.5781 23.2057 24.2812 22.1641L25.4141 22.9844C24.5807 24.2083 23.5 25.1784 22.1719 25.8945C20.8438 26.6107 19.4115 26.9688 17.875 26.9688C16.638 26.9688 15.4531 26.7279 14.3203 26.2461C13.2005 25.7643 12.2305 25.1133 11.4102 24.293C10.5898 23.4727 9.9388 22.5026 9.45703 21.3828C8.97526 20.25 8.73438 19.0651 8.73438 17.8281C8.73438 16.5911 8.97526 15.4128 9.45703 14.293C9.9388 13.1602 10.5898 12.1836 11.4102 11.3633C12.2305 10.543 13.2005 9.89193 14.3203 9.41016C15.4531 8.92839 16.638 8.6875 17.875 8.6875C19.4245 8.6875 20.8633 9.05208 22.1914 9.78125C23.5195 10.4974 24.6003 11.474 25.4336 12.7109ZM27.7578 11.1094L26.5859 11.8711C25.6224 10.4648 24.3724 9.35156 22.8359 8.53125C21.3125 7.69792 19.6589 7.28125 17.875 7.28125C15.9609 7.28125 14.1966 7.75651 12.582 8.70703C10.9674 9.64453 9.6849 10.9206 8.73438 12.5352C7.79688 14.1497 7.32812 15.9141 7.32812 17.8281C7.32812 19.7422 7.79688 21.5065 8.73438 23.1211C9.6849 24.7357 10.9674 26.0182 12.582 26.9688C14.1966 27.9062 15.9609 28.375 17.875 28.375C19.6589 28.375 21.319 27.9583 22.8555 27.125C24.3919 26.2917 25.6419 25.1654 26.6055 23.7461L27.7578 24.5469C26.6641 26.1615 25.2448 27.4375 23.5 28.375C21.7682 29.3125 19.8932 29.7812 17.875 29.7812C15.7135 29.7812 13.7148 29.2474 11.8789 28.1797C10.043 27.112 8.59115 25.6602 7.52344 23.8242C6.45573 21.9883 5.92188 19.9896 5.92188 17.8281C5.92188 15.6667 6.45573 13.668 7.52344 11.832C8.59115 9.99609 10.043 8.54427 11.8789 7.47656C13.7148 6.40885 15.7135 5.875 17.875 5.875C19.8932 5.875 21.7682 6.34375 23.5 7.28125C25.2448 8.21875 26.6641 9.49479 27.7578 11.1094ZM30.1016 9.54688L28.9297 10.3086C27.7057 8.51172 26.1172 7.09245 24.1641 6.05078C22.224 4.99609 20.1276 4.46875 17.875 4.46875C16.0651 4.46875 14.3333 4.82031 12.6797 5.52344C11.026 6.22656 9.60026 7.17708 8.40234 8.375C7.21745 9.5599 6.27344 10.9792 5.57031 12.6328C4.86719 14.2865 4.51562 16.0182 4.51562 17.8281C4.51562 19.638 4.86719 21.3698 5.57031 23.0234C6.27344 24.6771 7.21745 26.1029 8.40234 27.3008C9.60026 28.4857 11.026 29.4297 12.6797 30.1328C14.3333 30.8359 16.0651 31.1875 17.875 31.1875C20.1406 31.1875 22.2435 30.6602 24.1836 29.6055C26.1237 28.5508 27.7057 27.125 28.9297 25.3281L30.0625 26.168C28.7083 28.1471 26.957 29.7161 24.8086 30.875C22.6732 32.0208 20.362 32.5938 17.875 32.5938C15.2057 32.5938 12.7383 31.9362 10.4727 30.6211C8.20703 29.293 6.41016 27.4961 5.08203 25.2305C3.76693 22.9648 3.10938 20.4974 3.10938 17.8281C3.10938 15.1589 3.76693 12.6914 5.08203 10.4258C6.41016 8.16016 8.20703 6.36979 10.4727 5.05469C12.7383 3.72656 15.2057 3.0625 17.875 3.0625C20.375 3.0625 22.6992 3.64844 24.8477 4.82031C26.9961 5.97917 28.7474 7.55469 30.1016 9.54688ZM32.4062 7.94531L31.2344 8.70703C29.75 6.53255 27.8294 4.8138 25.4727 3.55078C23.1289 2.28776 20.5964 1.65625 17.875 1.65625C15.6875 1.65625 13.5911 2.08594 11.5859 2.94531C9.59375 3.79167 7.875 4.9375 6.42969 6.38281C4.98438 7.82812 3.83203 9.55339 2.97266 11.5586C2.1263 13.5508 1.70312 15.6406 1.70312 17.8281C1.70312 20.0156 2.1263 22.112 2.97266 24.1172C3.83203 26.1094 4.98438 27.8281 6.42969 29.2734C7.875 30.7188 9.59375 31.8711 11.5859 32.7305C13.5911 33.5768 15.6875 34 17.875 34C20.5964 34 23.1354 33.362 25.4922 32.0859C27.849 30.8099 29.7695 29.0846 31.2539 26.9102L32.3867 27.7695C30.7721 30.1133 28.6888 31.9753 26.1367 33.3555C23.5846 34.7227 20.8307 35.4062 17.875 35.4062C15.4922 35.4062 13.2135 34.9375 11.0391 34C8.8776 33.0755 7.00911 31.832 5.43359 30.2695C3.87109 28.694 2.62109 26.8255 1.68359 24.6641C0.759115 22.4896 0.296875 20.2109 0.296875 17.8281C0.296875 15.4453 0.759115 13.1732 1.68359 11.0117C2.62109 8.83724 3.87109 6.96875 5.43359 5.40625C7.00911 3.83073 8.8776 2.58073 11.0391 1.65625C13.2135 0.71875 15.4922 0.25 17.875 0.25C20.8438 0.25 23.6042 0.940104 26.1562 2.32031C28.7083 3.70052 30.7917 5.57552 32.4062 7.94531ZM59.5352 12.7109L58.3828 13.4727C57.6797 12.431 56.7617 11.6107 55.6289 11.0117C54.5091 10.3997 53.2917 10.0938 51.9766 10.0938C49.8411 10.0938 48.0182 10.849 46.5078 12.3594C44.9974 13.8698 44.2422 15.6927 44.2422 17.8281C44.2422 19.9635 44.9974 21.7865 46.5078 23.2969C48.0182 24.8073 49.8411 25.5625 51.9766 25.5625C53.2917 25.5625 54.5091 25.2565 55.6289 24.6445C56.7617 24.0326 57.6797 23.2057 58.3828 22.1641L59.5156 22.9844C58.6823 24.2083 57.6016 25.1784 56.2734 25.8945C54.9453 26.6107 53.513 26.9688 51.9766 26.9688C50.7396 26.9688 49.5547 26.7279 48.4219 26.2461C47.3021 25.7643 46.332 25.1133 45.5117 24.293C44.6914 23.4727 44.0404 22.5026 43.5586 21.3828C43.0768 20.25 42.8359 19.0651 42.8359 17.8281C42.8359 16.5911 43.0768 15.4128 43.5586 14.293C44.0404 13.1602 44.6914 12.1836 45.5117 11.3633C46.332 10.543 47.3021 9.89193 48.4219 9.41016C49.5547 8.92839 50.7396 8.6875 51.9766 8.6875C53.526 8.6875 54.9648 9.05208 56.293 9.78125C57.6211 10.4974 58.7018 11.474 59.5352 12.7109ZM61.8594 11.1094L60.6875 11.8711C59.724 10.4648 58.474 9.35156 56.9375 8.53125C55.4141 7.69792 53.7604 7.28125 51.9766 7.28125C50.0625 7.28125 48.2982 7.75651 46.6836 8.70703C45.069 9.64453 43.7865 10.9206 42.8359 12.5352C41.8984 14.1497 41.4297 15.9141 41.4297 17.8281C41.4297 19.7422 41.8984 21.5065 42.8359 23.1211C43.7865 24.7357 45.069 26.0182 46.6836 26.9688C48.2982 27.9062 50.0625 28.375 51.9766 28.375C53.7604 28.375 55.4206 27.9583 56.957 27.125C58.4935 26.2917 59.7435 25.1654 60.707 23.7461L61.8594 24.5469C60.7656 26.1615 59.3464 27.4375 57.6016 28.375C55.8698 29.3125 53.9948 29.7812 51.9766 29.7812C49.8151 29.7812 47.8164 29.2474 45.9805 28.1797C44.1445 27.112 42.6927 25.6602 41.625 23.8242C40.5573 21.9883 40.0234 19.9896 40.0234 17.8281C40.0234 15.6667 40.5573 13.668 41.625 11.832C42.6927 9.99609 44.1445 8.54427 45.9805 7.47656C47.8164 6.40885 49.8151 5.875 51.9766 5.875C53.9948 5.875 55.8698 6.34375 57.6016 7.28125C59.3464 8.21875 60.7656 9.49479 61.8594 11.1094ZM64.2031 9.54688L63.0312 10.3086C61.8073 8.51172 60.2188 7.09245 58.2656 6.05078C56.3255 4.99609 54.2292 4.46875 51.9766 4.46875C50.1667 4.46875 48.4349 4.82031 46.7812 5.52344C45.1276 6.22656 43.7018 7.17708 42.5039 8.375C41.319 9.5599 40.375 10.9792 39.6719 12.6328C38.9688 14.2865 38.6172 16.0182 38.6172 17.8281C38.6172 19.638 38.9688 21.3698 39.6719 23.0234C40.375 24.6771 41.319 26.1029 42.5039 27.3008C43.7018 28.4857 45.1276 29.4297 46.7812 30.1328C48.4349 30.8359 50.1667 31.1875 51.9766 31.1875C54.2422 31.1875 56.3451 30.6602 58.2852 29.6055C60.2253 28.5508 61.8073 27.125 63.0312 25.3281L64.1641 26.168C62.8099 28.1471 61.0586 29.7161 58.9102 30.875C56.7747 32.0208 54.4635 32.5938 51.9766 32.5938C49.3073 32.5938 46.8398 31.9362 44.5742 30.6211C42.3086 29.293 40.5117 27.4961 39.1836 25.2305C37.8685 22.9648 37.2109 20.4974 37.2109 17.8281C37.2109 15.1589 37.8685 12.6914 39.1836 10.4258C40.5117 8.16016 42.3086 6.36979 44.5742 5.05469C46.8398 3.72656 49.3073 3.0625 51.9766 3.0625C54.4766 3.0625 56.8008 3.64844 58.9492 4.82031C61.0977 5.97917 62.849 7.55469 64.2031 9.54688ZM66.5078 7.94531L65.3359 8.70703C63.8516 6.53255 61.931 4.8138 59.5742 3.55078C57.2305 2.28776 54.6979 1.65625 51.9766 1.65625C49.7891 1.65625 47.6927 2.08594 45.6875 2.94531C43.6953 3.79167 41.9766 4.9375 40.5312 6.38281C39.0859 7.82812 37.9336 9.55339 37.0742 11.5586C36.2279 13.5508 35.8047 15.6406 35.8047 17.8281C35.8047 20.0156 36.2279 22.112 37.0742 24.1172C37.9336 26.1094 39.0859 27.8281 40.5312 29.2734C41.9766 30.7188 43.6953 31.8711 45.6875 32.7305C47.6927 33.5768 49.7891 34 51.9766 34C54.6979 34 57.237 33.362 59.5938 32.0859C61.9505 30.8099 63.8711 29.0846 65.3555 26.9102L66.4883 27.7695C64.8737 30.1133 62.7904 31.9753 60.2383 33.3555C57.6862 34.7227 54.9323 35.4062 51.9766 35.4062C49.5938 35.4062 47.3151 34.9375 45.1406 34C42.9792 33.0755 41.1107 31.832 39.5352 30.2695C37.9727 28.694 36.7227 26.8255 35.7852 24.6641C34.8607 22.4896 34.3984 20.2109 34.3984 17.8281C34.3984 15.4453 34.8607 13.1732 35.7852 11.0117C36.7227 8.83724 37.9727 6.96875 39.5352 5.40625C41.1107 3.83073 42.9792 2.58073 45.1406 1.65625C47.3151 0.71875 49.5938 0.25 51.9766 0.25C54.9453 0.25 57.7057 0.940104 60.2578 2.32031C62.8099 3.70052 64.8932 5.57552 66.5078 7.94531ZM68.9102 28.375V26.9688H87.9727V28.375H68.9102ZM68.9102 31.1875V29.7812H87.9727V31.1875H68.9102ZM68.9102 34V32.5938H87.9727V34H68.9102ZM71.0781 26.1875H69.4375C70.349 24.9505 71.2474 23.7396 72.1328 22.5547C73.0182 21.3698 73.7539 20.3867 74.3398 19.6055C74.9388 18.8112 75.5182 18.0365 76.0781 17.2812C76.638 16.526 77.0872 15.9206 77.4258 15.4648C77.7773 15.0091 78.1094 14.5664 78.4219 14.1367C78.7344 13.707 78.9688 13.375 79.125 13.1406C79.2812 12.8932 79.418 12.6589 79.5352 12.4375C79.6654 12.2161 79.75 12.0404 79.7891 11.9102C79.8281 11.7669 79.8477 11.6302 79.8477 11.5C79.8477 10.901 79.6003 10.5169 79.1055 10.3477C78.6107 10.1784 77.7383 10.0938 76.4883 10.0938C74.457 10.0938 72.4258 10.3607 70.3945 10.8945L70.1016 9.54688C70.4271 9.40365 71.2474 9.22135 72.5625 9C73.8906 8.76562 75.1667 8.64844 76.3906 8.64844C77.1328 8.64844 77.7773 8.69401 78.3242 8.78516C78.8711 8.86328 79.3659 9.00651 79.8086 9.21484C80.2643 9.41016 80.6094 9.70312 80.8438 10.0938C81.0781 10.4714 81.1953 10.9401 81.1953 11.5C81.1953 12.0599 80.9089 12.776 80.3359 13.6484C79.763 14.5208 78.2917 16.5391 75.9219 19.7031C73.9948 22.2682 72.3802 24.4297 71.0781 26.1875ZM74.2617 26.1875H72.6211C77.4779 19.651 80.1732 15.9987 80.707 15.2305C81.8008 13.668 82.4128 12.5547 82.543 11.8906C82.582 11.7083 82.6016 11.513 82.6016 11.3047C82.6016 8.60938 80.5573 7.26172 76.4688 7.26172C75.2188 7.26172 73.9492 7.3724 72.6602 7.59375C71.3711 7.8151 70.4271 8.03646 69.8281 8.25781L69.5547 6.91016C71.7812 6.22005 74.0924 5.875 76.4883 5.875C77.3216 5.875 78.0898 5.93359 78.793 6.05078C79.5091 6.15495 80.1927 6.33724 80.8438 6.59766C81.4948 6.85807 82.0482 7.19661 82.5039 7.61328C82.9596 8.01693 83.3177 8.53125 83.5781 9.15625C83.8516 9.78125 83.9883 10.4974 83.9883 11.3047C83.9883 12.138 83.5781 13.1862 82.7578 14.4492C81.9375 15.7122 79.4831 19.1107 75.3945 24.6445C74.8997 25.3086 74.5221 25.8229 74.2617 26.1875ZM77.5234 26.1875H75.8828C80.3229 20.1198 83.0182 16.3438 83.9688 14.8594C84.9193 13.362 85.3945 12.112 85.3945 11.1094C85.3945 9.88542 85.1536 8.83073 84.6719 7.94531C84.2031 7.0599 83.5391 6.36979 82.6797 5.875C81.8333 5.38021 80.8958 5.02214 79.8672 4.80078C78.8516 4.57943 77.7188 4.46875 76.4688 4.46875C74.0599 4.46875 71.6576 4.83333 69.2617 5.5625L68.9688 4.13672C71.5339 3.38151 74.0143 3.00391 76.4102 3.00391C77.582 3.00391 78.6693 3.08854 79.6719 3.25781C80.6745 3.42708 81.6185 3.71354 82.5039 4.11719C83.4023 4.50781 84.1576 5.00911 84.7695 5.62109C85.3945 6.23307 85.8893 7.00781 86.2539 7.94531C86.6185 8.86979 86.8008 9.92448 86.8008 11.1094C86.8008 11.9557 86.599 12.8216 86.1953 13.707C85.8047 14.5794 84.9844 15.9141 83.7344 17.7109C82.4974 19.5078 80.4271 22.3333 77.5234 26.1875ZM80.9023 26.1875H79.2617C82.0091 22.5547 83.9948 19.8268 85.2188 18.0039C86.4557 16.168 87.263 14.7812 87.6406 13.8438C88.0182 12.8932 88.207 11.9167 88.207 10.9141C88.207 9.63802 88.0117 8.48568 87.6211 7.45703C87.2435 6.41536 86.7031 5.54297 86 4.83984C85.3099 4.1237 84.4766 3.52474 83.5 3.04297C82.5234 2.5612 81.4492 2.20964 80.2773 1.98828C79.1185 1.76693 77.862 1.65625 76.5078 1.65625C74.0078 1.65625 71.4036 2.04688 68.6953 2.82812L68.4023 1.44141C71.1497 0.647135 73.8385 0.25 76.4688 0.25C78.4219 0.25 80.1862 0.464844 81.7617 0.894531C83.3503 1.3112 84.7305 1.94271 85.9023 2.78906C87.0872 3.63542 87.9987 4.7487 88.6367 6.12891C89.2878 7.50911 89.6133 9.10417 89.6133 10.9141C89.6133 12.0599 89.4245 13.1406 89.0469 14.1562C88.6823 15.1719 87.875 16.6107 86.625 18.4727C85.388 20.3346 83.4805 22.9062 80.9023 26.1875ZM91.8398 8.6875V7.28125H106.02V34H104.613V8.6875H103.207V34H101.801V8.6875H100.395V34H98.9883V8.6875H97.582V34H96.1758V8.6875H91.8398ZM91.8398 5.875V4.46875H106.02V5.875H91.8398ZM91.8398 3.0625V1.65625H106.02V3.0625H91.8398Z" fill="#4E45BF"/>
</svg>
